<svg width="64" height="64" viewBox="0 0 64 64" xmlns="http://www.w3.org/2000/svg"><g><animateTransform attributeType="XML" attributeName="transform" type="rotate" from="0 32 32" to="360 32 32" dur="15s" repeatCount="indefinite"/><circle cx="32" cy="32" r="28" fill="#E2A76F" stroke="#C68642" stroke-width="4"/><circle cx="32" cy="32" r="8" fill="wheat"/><ellipse cx="16" cy="20" rx="1" ry="3" fill="#FFF8DC" transform="rotate(10 16 20)"/><ellipse cx="25" cy="22" rx="1" ry="3" fill="#FFF8DC" transform="rotate(-15 25 22)"/><ellipse cx="40" cy="18" rx="1" ry="3" fill="#FFF8DC" transform="rotate(5 40 18)"/><ellipse cx="33" cy="12" rx="1" ry="3" fill="#FFF8DC" transform="rotate(-8 33 12)"/><ellipse cx="50" cy="28" rx="1" ry="3" fill="#FFF8DC" transform="rotate(12 50 28)"/><ellipse cx="18" cy="34" rx="1" ry="3" fill="#FFF8DC" transform="rotate(-20 18 34)"/><ellipse cx="16" cy="44" rx="1" ry="3" fill="#FFF8DC" transform="rotate(7 16 44)"/><ellipse cx="25" cy="50" rx="1" ry="3" fill="#FFF8DC" transform="rotate(-10 25 50)"/><ellipse cx="36" cy="46" rx="1" ry="3" fill="#FFF8DC" transform="rotate(14 36 46)"/><ellipse cx="48" cy="46" rx="1" ry="3" fill="#FFF8DC" transform="rotate(-6 48 46)"/></g></svg>